<?xml version="1.0" encoding="UTF-8" standalone="no"?><!-- Generator: Gravit.io --><svg xmlns="http://www.w3.org/2000/svg" xmlns:xlink="http://www.w3.org/1999/xlink" style="isolation:isolate" viewBox="0 0 1024 1024" width="1024pt" height="1024pt"><defs><clipPath id="_clipPath_iiRYRNs9gTeCOn6rYTOelmk2eV0c4UoY"><rect width="1024" height="1024"/></clipPath></defs><g clip-path="url(#_clipPath_iiRYRNs9gTeCOn6rYTOelmk2eV0c4UoY)"><linearGradient id="_lgradient_1" x1="0.14644660940672616" y1="0.14644660940672632" x2="0.8535533905932738" y2="0.8535533905932737" gradientTransform="matrix(1024,0,0,1024,0,-2)" gradientUnits="userSpaceOnUse"><stop offset="0%" stop-opacity="1" style="stop-color:rgb(81,168,255)"/><stop offset="100%" stop-opacity="1" style="stop-color:rgb(0,101,208)"/></linearGradient><rect x="0" y="-2" width="1024" height="1024" transform="matrix(1,0,0,1,0,0)" fill="url(#_lgradient_1)"/><path d=" M 420.835 590.661 L 420.835 384.162 L 571.093 590.661 L 571.093 384.162" fill="none" vector-effect="non-scaling-stroke" stroke-width="65" stroke="rgb(255,255,255)" stroke-linejoin="round" stroke-linecap="round" stroke-miterlimit="3"/><path d=" M 420.835 597.232 L 420.835 702.034 C 480.811 717.523 535.972 719.41 578.342 703.911 C 599.011 731.582 637.638 753.288 694.195 769 C 666.156 733.057 655.965 701.538 663.594 674.415 Q 775.855 614.386 775.855 481.914 C 775.855 349.441 642.244 248.525 505.525 249.001 C 368.806 249.478 236.145 342.29 236.145 481.962" fill="none" vector-effect="non-scaling-stroke" stroke-width="65" stroke="rgb(255,255,255)" stroke-linejoin="round" stroke-linecap="round" stroke-miterlimit="3"/></g></svg>